<?xml version="1.0"?>
<!DOCTYPE svg PUBLIC "-//W3C//DTD SVG 1.1//EN" "http://www.w3.org/Graphics/SVG/1.1/DTD/svg11.dtd">
<svg width="117.3mm" height="202.3mm" viewBox="0 0 117.3 202.3" xmlns="http://www.w3.org/2000/svg" version="1.1">
<g id="Pocket029" transform="translate(58.650000,204.150000) scale(1,-1)">
<circle cx="24.499999999999996" cy="7.8500000000000005" r="2.0" stroke="#191919" stroke-width="0.7 px" style="stroke-width:0.7;stroke-miterlimit:4;stroke-dasharray:none;stroke-linecap:square;fill:#cccccc"/>
<path id="Pocket029_f0001"  d="M -22.5 4.0001 L -22.5 4.0 L -22.5 4.0 L -22.5 4.0001 L -22.5 4.0001 Z " stroke="#191919" stroke-width="0.7 px" style="stroke-width:0.7;stroke-miterlimit:4;stroke-dasharray:none;stroke-linecap:square;fill:#cccccc;fill-opacity:1.0;fill-rule: evenodd"/>
<path id="Pocket029_f0002"  d="M -22.5 4.0001 A 0.9999 0.9999 0 0 0 -21.5001 5L -21.5001 5.0 A 0.9999 0.9999 0 0 1 -22.5 4.0001L -22.5 4.0001 Z " stroke="#191919" stroke-width="0.7 px" style="stroke-width:0.7;stroke-miterlimit:4;stroke-dasharray:none;stroke-linecap:square;fill:#cccccc;fill-opacity:1.0;fill-rule: evenodd"/>
<path id="Pocket029_f0003"  d="M -23.5 3.0 A 1 1 0 0 1 -22.5 4L -22.5 4.0 A 1 1 0 0 0 -23.5 3L -23.5 3.0 Z " stroke="#191919" stroke-width="0.7 px" style="stroke-width:0.7;stroke-miterlimit:4;stroke-dasharray:none;stroke-linecap:square;fill:#cccccc;fill-opacity:1.0;fill-rule: evenodd"/>
<path id="Pocket029_f0004"  d="M 21.5001 5.0 L -21.5001 5.0 L -21.5001 4.999999999999999 L 21.5001 5.0 L 21.5001 5.0 Z " stroke="#191919" stroke-width="0.7 px" style="stroke-width:0.7;stroke-miterlimit:4;stroke-dasharray:none;stroke-linecap:square;fill:#cccccc;fill-opacity:1.0;fill-rule: evenodd"/>
<path id="Pocket029_f0005"  d="M -23.5 3.0 L -27.0 3.0 L -27.0 3.0 L -23.5 3.0 L -23.5 3.0 Z " stroke="#191919" stroke-width="0.7 px" style="stroke-width:0.7;stroke-miterlimit:4;stroke-dasharray:none;stroke-linecap:square;fill:#cccccc;fill-opacity:1.0;fill-rule: evenodd"/>
<path id="Pocket029_f0006"  d="M 21.5001 5.0 A 0.9999 0.9999 0 0 0 22.5 4.0001L 22.5 4.000100000000001 A 0.9999 0.9999 0 0 1 21.5001 5L 21.5001 5.0 Z " stroke="#191919" stroke-width="0.7 px" style="stroke-width:0.7;stroke-miterlimit:4;stroke-dasharray:none;stroke-linecap:square;fill:#cccccc;fill-opacity:1.0;fill-rule: evenodd"/>
<path id="Pocket029_f0007"  d="M -29.0 5.0 A 2 2 0 0 1 -27 3L -27.0 3.0 A 2 2 0 0 0 -29 5L -29.0 5.0 Z " stroke="#191919" stroke-width="0.7 px" style="stroke-width:0.7;stroke-miterlimit:4;stroke-dasharray:none;stroke-linecap:square;fill:#cccccc;fill-opacity:1.0;fill-rule: evenodd"/>
<path id="Pocket029_f0008"  d="M 22.5 4.0001 L 22.5 4.0 L 22.5 4.0 L 22.5 4.0001 L 22.5 4.0001 Z " stroke="#191919" stroke-width="0.7 px" style="stroke-width:0.7;stroke-miterlimit:4;stroke-dasharray:none;stroke-linecap:square;fill:#cccccc;fill-opacity:1.0;fill-rule: evenodd"/>
<path id="Pocket029_f0009"  d="M -29.0 5.0 L -29.0 31.0 L -29.0 31.0 L -29.0 5.0 L -29.0 5.0 Z " stroke="#191919" stroke-width="0.7 px" style="stroke-width:0.7;stroke-miterlimit:4;stroke-dasharray:none;stroke-linecap:square;fill:#cccccc;fill-opacity:1.0;fill-rule: evenodd"/>
<path id="Pocket029_f0010"  d="M 22.5 4.0 A 1 1 0 0 1 23.5 3L 23.5 3.0 A 1 1 0 0 0 22.5 4L 22.5 4.0 Z " stroke="#191919" stroke-width="0.7 px" style="stroke-width:0.7;stroke-miterlimit:4;stroke-dasharray:none;stroke-linecap:square;fill:#cccccc;fill-opacity:1.0;fill-rule: evenodd"/>
<path id="Pocket029_f0011"  d="M -27.0 33.0 A 2 2 0 0 1 -29 31L -29.0 31.0 A 2 2 0 0 0 -27 33L -27.0 33.0 Z " stroke="#191919" stroke-width="0.7 px" style="stroke-width:0.7;stroke-miterlimit:4;stroke-dasharray:none;stroke-linecap:square;fill:#cccccc;fill-opacity:1.0;fill-rule: evenodd"/>
<path id="Pocket029_f0012"  d="M 23.5 3.0 L 27.0 3.0 L 27.0 3.0 L 23.5 3.0 L 23.5 3.0 Z " stroke="#191919" stroke-width="0.7 px" style="stroke-width:0.7;stroke-miterlimit:4;stroke-dasharray:none;stroke-linecap:square;fill:#cccccc;fill-opacity:1.0;fill-rule: evenodd"/>
<path id="Pocket029_f0013"  d="M -27.0 33.0 L -22.5 33.0 L -22.5 33.0 L -27.0 33.0 L -27.0 33.0 Z " stroke="#191919" stroke-width="0.7 px" style="stroke-width:0.7;stroke-miterlimit:4;stroke-dasharray:none;stroke-linecap:square;fill:#cccccc;fill-opacity:1.0;fill-rule: evenodd"/>
<path id="Pocket029_f0014"  d="M 29.0 5.0 A 2 2 0 0 0 27 3L 27.0 3.0 A 2 2 0 0 1 29 5L 29.0 5.0 Z " stroke="#191919" stroke-width="0.7 px" style="stroke-width:0.7;stroke-miterlimit:4;stroke-dasharray:none;stroke-linecap:square;fill:#cccccc;fill-opacity:1.0;fill-rule: evenodd"/>
<path id="Pocket029_f0015"  d="M -22.5 33.0 L -22.5 58.0 L -22.5 58.0 L -22.5 33.0 L -22.5 33.0 Z " stroke="#191919" stroke-width="0.7 px" style="stroke-width:0.7;stroke-miterlimit:4;stroke-dasharray:none;stroke-linecap:square;fill:#cccccc;fill-opacity:1.0;fill-rule: evenodd"/>
<path id="Pocket029_f0016"  d="M 29.0 5.0 L 29.0 31.0 L 29.0 31.0 L 29.0 5.0 L 29.0 5.0 Z " stroke="#191919" stroke-width="0.7 px" style="stroke-width:0.7;stroke-miterlimit:4;stroke-dasharray:none;stroke-linecap:square;fill:#cccccc;fill-opacity:1.0;fill-rule: evenodd"/>
<path id="Pocket029_f0017"  d="M -22.5 58.0 L -55.5 58.0 L -55.5 58.0 L -22.5 58.0 L -22.5 58.0 Z " stroke="#191919" stroke-width="0.7 px" style="stroke-width:0.7;stroke-miterlimit:4;stroke-dasharray:none;stroke-linecap:square;fill:#cccccc;fill-opacity:1.0;fill-rule: evenodd"/>
<path id="Pocket029_f0018"  d="M 27.0 33.0 A 2 2 0 0 0 29 31L 29.0 31.0 A 2 2 0 0 1 27 33L 27.0 33.0 Z " stroke="#191919" stroke-width="0.7 px" style="stroke-width:0.7;stroke-miterlimit:4;stroke-dasharray:none;stroke-linecap:square;fill:#cccccc;fill-opacity:1.0;fill-rule: evenodd"/>
<path id="Pocket029_f0019"  d="M -57.5 60.0 A 2 2 0 0 1 -55.5 58L -55.5 58.0 A 2 2 0 0 0 -57.5 60L -57.5 60.0 Z " stroke="#191919" stroke-width="0.7 px" style="stroke-width:0.7;stroke-miterlimit:4;stroke-dasharray:none;stroke-linecap:square;fill:#cccccc;fill-opacity:1.0;fill-rule: evenodd"/>
<path id="Pocket029_f0020"  d="M 27.0 33.0 L 22.5 33.0 L 22.5 33.0 L 27.0 33.0 L 27.0 33.0 Z " stroke="#191919" stroke-width="0.7 px" style="stroke-width:0.7;stroke-miterlimit:4;stroke-dasharray:none;stroke-linecap:square;fill:#cccccc;fill-opacity:1.0;fill-rule: evenodd"/>
<path id="Pocket029_f0021"  d="M -57.5 60.0 L -57.5 131.0 L -57.5 131.0 L -57.5 60.0 L -57.5 60.0 Z " stroke="#191919" stroke-width="0.7 px" style="stroke-width:0.7;stroke-miterlimit:4;stroke-dasharray:none;stroke-linecap:square;fill:#cccccc;fill-opacity:1.0;fill-rule: evenodd"/>
<path id="Pocket029_f0022"  d="M 22.5 58.0 L 22.5 58.0 L 22.5 33.0 L 22.5 33.0 L 22.5 58.0 Z " stroke="#191919" stroke-width="0.7 px" style="stroke-width:0.7;stroke-miterlimit:4;stroke-dasharray:none;stroke-linecap:square;fill:#cccccc;fill-opacity:1.0;fill-rule: evenodd"/>
<path id="Pocket029_f0023"  d="M -55.5 133.0 A 2 2 0 0 1 -57.5 131L -57.5 131.0 A 2 2 0 0 0 -55.5 133L -55.5 133.0 Z " stroke="#191919" stroke-width="0.7 px" style="stroke-width:0.7;stroke-miterlimit:4;stroke-dasharray:none;stroke-linecap:square;fill:#cccccc;fill-opacity:1.0;fill-rule: evenodd"/>
<path id="Pocket029_f0024"  d="M 22.5 58.0 L 55.5 58.0 L 55.5 58.0 L 22.5 58.0 L 22.5 58.0 Z " stroke="#191919" stroke-width="0.7 px" style="stroke-width:0.7;stroke-miterlimit:4;stroke-dasharray:none;stroke-linecap:square;fill:#cccccc;fill-opacity:1.0;fill-rule: evenodd"/>
<path id="Pocket029_f0025"  d="M -55.5 133.0 L -32.0 133.0 L -32.0 133.0 L -55.5 133.0 L -55.5 133.0 Z " stroke="#191919" stroke-width="0.7 px" style="stroke-width:0.7;stroke-miterlimit:4;stroke-dasharray:none;stroke-linecap:square;fill:#cccccc;fill-opacity:1.0;fill-rule: evenodd"/>
<path id="Pocket029_f0026"  d="M 57.5 60.0 A 2 2 0 0 0 55.5 58L 55.5 58.0 A 2 2 0 0 1 57.5 60L 57.5 60.0 Z " stroke="#191919" stroke-width="0.7 px" style="stroke-width:0.7;stroke-miterlimit:4;stroke-dasharray:none;stroke-linecap:square;fill:#cccccc;fill-opacity:1.0;fill-rule: evenodd"/>
<path id="Pocket029_f0027"  d="M -32.0 133.0 L -32.0 201.0 L -32.0 201.0 L -32.0 133.0 L -32.0 133.0 Z " stroke="#191919" stroke-width="0.7 px" style="stroke-width:0.7;stroke-miterlimit:4;stroke-dasharray:none;stroke-linecap:square;fill:#cccccc;fill-opacity:1.0;fill-rule: evenodd"/>
<path id="Pocket029_f0028"  d="M 57.5 60.0 L 57.5 131.0 L 57.5 131.0 L 57.5 60.0 L 57.5 60.0 Z " stroke="#191919" stroke-width="0.7 px" style="stroke-width:0.7;stroke-miterlimit:4;stroke-dasharray:none;stroke-linecap:square;fill:#cccccc;fill-opacity:1.0;fill-rule: evenodd"/>
<path id="Pocket029_f0029"  d="M -30.0 203.0 A 2 2 0 0 1 -32 201L -32.0 201.0 A 2 2 0 0 0 -30 203L -30.0 203.0 Z " stroke="#191919" stroke-width="0.7 px" style="stroke-width:0.7;stroke-miterlimit:4;stroke-dasharray:none;stroke-linecap:square;fill:#cccccc;fill-opacity:1.0;fill-rule: evenodd"/>
<path id="Pocket029_f0030"  d="M 55.5 133.0 A 2 2 0 0 0 57.5 131L 57.5 131.0 A 2 2 0 0 1 55.5 133L 55.5 133.0 Z " stroke="#191919" stroke-width="0.7 px" style="stroke-width:0.7;stroke-miterlimit:4;stroke-dasharray:none;stroke-linecap:square;fill:#cccccc;fill-opacity:1.0;fill-rule: evenodd"/>
<path id="Pocket029_f0031"  d="M 30.0 203.0 L -30.0 203.0 L -30.0 203.0 L 30.0 203.0 L 30.0 203.0 Z " stroke="#191919" stroke-width="0.7 px" style="stroke-width:0.7;stroke-miterlimit:4;stroke-dasharray:none;stroke-linecap:square;fill:#cccccc;fill-opacity:1.0;fill-rule: evenodd"/>
<path id="Pocket029_f0032"  d="M 55.5 133.0 L 32.0 133.0 L 32.0 133.0 L 55.5 133.0 L 55.5 133.0 Z " stroke="#191919" stroke-width="0.7 px" style="stroke-width:0.7;stroke-miterlimit:4;stroke-dasharray:none;stroke-linecap:square;fill:#cccccc;fill-opacity:1.0;fill-rule: evenodd"/>
<path id="Pocket029_f0033"  d="M 32.0 201.0 A 2 2 0 0 1 30 203L 30.0 203.0 A 2 2 0 0 0 32 201L 32.0 201.0 Z " stroke="#191919" stroke-width="0.7 px" style="stroke-width:0.7;stroke-miterlimit:4;stroke-dasharray:none;stroke-linecap:square;fill:#cccccc;fill-opacity:1.0;fill-rule: evenodd"/>
<path id="Pocket029_f0034"  d="M 32.0 133.0 L 32.0 201.0 L 32.0 201.0 L 32.0 133.0 L 32.0 133.0 Z " stroke="#191919" stroke-width="0.7 px" style="stroke-width:0.7;stroke-miterlimit:4;stroke-dasharray:none;stroke-linecap:square;fill:#cccccc;fill-opacity:1.0;fill-rule: evenodd"/>
<circle cx="24.499999999999996" cy="7.8500000000000005" r="2.0" stroke="#191919" stroke-width="0.7 px" style="stroke-width:0.7;stroke-miterlimit:4;stroke-dasharray:none;stroke-linecap:square;fill:#cccccc"/>
<path id="Pocket029_f0036"  d="M 17.999999999999996 7.999999999999989 L 17.999999999999996 7.999999999999989 A 2 2 0 1 1 18 12L 17.99999999999995 12.00000000000001 A 2 2 0 1 0 18 8Z " stroke="#191919" stroke-width="0.7 px" style="stroke-width:0.7;stroke-miterlimit:4;stroke-dasharray:none;stroke-linecap:square;fill:#cccccc;fill-opacity:1.0;fill-rule: evenodd"/>
<path id="Pocket029_f0037"  d="M 16.000000000000025 7.99999999999999 L 17.999999999999996 7.99999999999999 L 17.999999999999996 7.999999999999989 L 16.000000000000025 7.999999999999989 L 16.000000000000025 7.999999999999989 Z " stroke="#191919" stroke-width="0.7 px" style="stroke-width:0.7;stroke-miterlimit:4;stroke-dasharray:none;stroke-linecap:square;fill:#cccccc;fill-opacity:1.0;fill-rule: evenodd"/>
<path id="Pocket029_f0038"  d="M 17.99999999999995 12.00000000000001 L 17.99999999999995 12.00000000000001 L 15.99999999999995 12.00000000000001 L 15.99999999999995 12.00000000000001 L 17.99999999999995 12.00000000000001 Z " stroke="#191919" stroke-width="0.7 px" style="stroke-width:0.7;stroke-miterlimit:4;stroke-dasharray:none;stroke-linecap:square;fill:#cccccc;fill-opacity:1.0;fill-rule: evenodd"/>
<path id="Pocket029_f0039"  d="M 15.99999999999995 12.00000000000001 L 15.99999999999995 12.00000000000001 A 2 2 0 0 1 16 8L 16.000000000000025 7.999999999999989 A 2 2 0 0 0 16 12Z " stroke="#191919" stroke-width="0.7 px" style="stroke-width:0.7;stroke-miterlimit:4;stroke-dasharray:none;stroke-linecap:square;fill:#cccccc;fill-opacity:1.0;fill-rule: evenodd"/>
<circle cx="24.499999999999996" cy="28.15" r="2.0" stroke="#191919" stroke-width="0.7 px" style="stroke-width:0.7;stroke-miterlimit:4;stroke-dasharray:none;stroke-linecap:square;fill:#cccccc"/>
<circle cx="42.24999999999999" cy="63.75" r="2.0" stroke="#191919" stroke-width="0.7 px" style="stroke-width:0.7;stroke-miterlimit:4;stroke-dasharray:none;stroke-linecap:square;fill:#cccccc"/>
<path id="Pocket029_f0042"  d="M 42.24999999999999 86.75 L 42.24999999999999 86.75 L 42.24999999999999 71.75 L 42.24999999999999 71.75 L 42.24999999999999 86.75 Z " stroke="#191919" stroke-width="0.7 px" style="stroke-width:0.7;stroke-miterlimit:4;stroke-dasharray:none;stroke-linecap:square;fill:#cccccc;fill-opacity:1.0;fill-rule: evenodd"/>
<path id="Pocket029_f0043"  d="M 52.24999999999999 86.75 L 52.24999999999999 86.75 L 42.24999999999999 86.75 L 42.24999999999999 86.75 L 52.24999999999999 86.75 Z " stroke="#191919" stroke-width="0.7 px" style="stroke-width:0.7;stroke-miterlimit:4;stroke-dasharray:none;stroke-linecap:square;fill:#cccccc;fill-opacity:1.0;fill-rule: evenodd"/>
<path id="Pocket029_f0044"  d="M 52.24999999999999 71.75 L 52.24999999999999 71.75 L 52.24999999999999 86.75 L 52.24999999999999 86.75 L 52.24999999999999 71.75 Z " stroke="#191919" stroke-width="0.7 px" style="stroke-width:0.7;stroke-miterlimit:4;stroke-dasharray:none;stroke-linecap:square;fill:#cccccc;fill-opacity:1.0;fill-rule: evenodd"/>
<path id="Pocket029_f0045"  d="M 42.24999999999999 71.75 L 42.24999999999999 71.75 L 52.24999999999999 71.75 L 52.24999999999999 71.75 L 42.24999999999999 71.75 Z " stroke="#191919" stroke-width="0.7 px" style="stroke-width:0.7;stroke-miterlimit:4;stroke-dasharray:none;stroke-linecap:square;fill:#cccccc;fill-opacity:1.0;fill-rule: evenodd"/>
<circle cx="42.24999999999999" cy="94.75" r="2.0" stroke="#191919" stroke-width="0.7 px" style="stroke-width:0.7;stroke-miterlimit:4;stroke-dasharray:none;stroke-linecap:square;fill:#cccccc"/>
<path id="Pocket029_f0047"  d="M 18.159999999999997 64.00000000000193 L 8.159999999999998 64.00000000000193 L 8.159999999999998 64.00000000000193 L 18.159999999999997 64.00000000000193 L 18.159999999999997 64.00000000000193 Z " stroke="#191919" stroke-width="0.7 px" style="stroke-width:0.7;stroke-miterlimit:4;stroke-dasharray:none;stroke-linecap:square;fill:#cccccc;fill-opacity:1.0;fill-rule: evenodd"/>
<path id="Pocket029_f0048"  d="M 18.159999999999997 64.00000000000193 L 18.159999999999997 64.00000000000193 A 2 2 0 0 0 18.16 60L 18.16 60.00000000000193 A 2 2 0 0 1 18.16 64Z " stroke="#191919" stroke-width="0.7 px" style="stroke-width:0.7;stroke-miterlimit:4;stroke-dasharray:none;stroke-linecap:square;fill:#cccccc;fill-opacity:1.0;fill-rule: evenodd"/>
<path id="Pocket029_f0049"  d="M 8.159999999999998 60.00000000000193 L 8.159999999999998 60.00000000000193 A 2 2 0 0 0 8.16 64L 8.159999999999998 64.00000000000193 A 2 2 0 0 1 8.16 60Z " stroke="#191919" stroke-width="0.7 px" style="stroke-width:0.7;stroke-miterlimit:4;stroke-dasharray:none;stroke-linecap:square;fill:#cccccc;fill-opacity:1.0;fill-rule: evenodd"/>
<path id="Pocket029_f0050"  d="M 18.16 60.00000000000193 L 18.16 60.00000000000193 L 8.159999999999998 60.00000000000193 L 8.159999999999998 60.00000000000193 L 18.16 60.00000000000193 Z " stroke="#191919" stroke-width="0.7 px" style="stroke-width:0.7;stroke-miterlimit:4;stroke-dasharray:none;stroke-linecap:square;fill:#cccccc;fill-opacity:1.0;fill-rule: evenodd"/>
<path id="Pocket029_f0051"  d="M 18.159999999999997 79.00000000000193 L 8.159999999999997 79.00000000000193 L 8.159999999999997 79.00000000000193 L 18.159999999999997 79.00000000000193 L 18.159999999999997 79.00000000000193 Z " stroke="#191919" stroke-width="0.7 px" style="stroke-width:0.7;stroke-miterlimit:4;stroke-dasharray:none;stroke-linecap:square;fill:#cccccc;fill-opacity:1.0;fill-rule: evenodd"/>
<path id="Pocket029_f0052"  d="M 18.159999999999997 79.00000000000193 L 18.159999999999997 79.00000000000193 A 2 2 0 0 0 18.16 75L 18.16 75.00000000000193 A 2 2 0 0 1 18.16 79Z " stroke="#191919" stroke-width="0.7 px" style="stroke-width:0.7;stroke-miterlimit:4;stroke-dasharray:none;stroke-linecap:square;fill:#cccccc;fill-opacity:1.0;fill-rule: evenodd"/>
<path id="Pocket029_f0053"  d="M 8.159999999999998 75.00000000000193 L 8.159999999999998 75.00000000000193 A 2 2 0 0 0 8.16 79L 8.159999999999997 79.00000000000193 A 2 2 0 0 1 8.16 75Z " stroke="#191919" stroke-width="0.7 px" style="stroke-width:0.7;stroke-miterlimit:4;stroke-dasharray:none;stroke-linecap:square;fill:#cccccc;fill-opacity:1.0;fill-rule: evenodd"/>
<path id="Pocket029_f0054"  d="M 18.16 75.00000000000193 L 18.16 75.00000000000193 L 8.159999999999998 75.00000000000193 L 8.159999999999998 75.00000000000193 L 18.16 75.00000000000193 Z " stroke="#191919" stroke-width="0.7 px" style="stroke-width:0.7;stroke-miterlimit:4;stroke-dasharray:none;stroke-linecap:square;fill:#cccccc;fill-opacity:1.0;fill-rule: evenodd"/>
<path id="Pocket029_f0055"  d="M -17.99999999999995 12.00000000000001 A 2 2 0 1 1 -18 8L -17.999999999999996 7.999999999999989 A 2 2 0 1 0 -18 12L -17.99999999999995 12.00000000000001 Z " stroke="#191919" stroke-width="0.7 px" style="stroke-width:0.7;stroke-miterlimit:4;stroke-dasharray:none;stroke-linecap:square;fill:#cccccc;fill-opacity:1.0;fill-rule: evenodd"/>
<path id="Pocket029_f0056"  d="M -17.999999999999996 7.999999999999989 L -17.999999999999996 7.999999999999989 L -16.000000000000025 7.999999999999989 L -16.000000000000025 7.999999999999989 L -17.999999999999996 7.99999999999999 Z " stroke="#191919" stroke-width="0.7 px" style="stroke-width:0.7;stroke-miterlimit:4;stroke-dasharray:none;stroke-linecap:square;fill:#cccccc;fill-opacity:1.0;fill-rule: evenodd"/>
<path id="Pocket029_f0057"  d="M -15.99999999999995 12.00000000000001 L -17.99999999999995 12.00000000000001 L -17.99999999999995 12.00000000000001 L -15.99999999999995 12.00000000000001 L -15.99999999999995 12.00000000000001 Z " stroke="#191919" stroke-width="0.7 px" style="stroke-width:0.7;stroke-miterlimit:4;stroke-dasharray:none;stroke-linecap:square;fill:#cccccc;fill-opacity:1.0;fill-rule: evenodd"/>
<path id="Pocket029_f0058"  d="M -16.000000000000025 7.999999999999989 A 2 2 0 0 1 -16 12L -15.99999999999995 12.00000000000001 A 2 2 0 0 0 -16 8L -16.000000000000025 7.999999999999989 Z " stroke="#191919" stroke-width="0.7 px" style="stroke-width:0.7;stroke-miterlimit:4;stroke-dasharray:none;stroke-linecap:square;fill:#cccccc;fill-opacity:1.0;fill-rule: evenodd"/>
<circle cx="-24.499999999999996" cy="7.8500000000000005" r="2.0" stroke="#191919" stroke-width="0.7 px" style="stroke-width:0.7;stroke-miterlimit:4;stroke-dasharray:none;stroke-linecap:square;fill:#cccccc"/>
<circle cx="-24.499999999999996" cy="28.15" r="2.0" stroke="#191919" stroke-width="0.7 px" style="stroke-width:0.7;stroke-miterlimit:4;stroke-dasharray:none;stroke-linecap:square;fill:#cccccc"/>
<path id="Pocket029_f0061"  d="M -18.0 64.00000000000097 L -28.0 64.0 L -28.0 64.0 L -18.0 64.00000000000097 L -18.0 64.00000000000097 Z " stroke="#191919" stroke-width="0.7 px" style="stroke-width:0.7;stroke-miterlimit:4;stroke-dasharray:none;stroke-linecap:square;fill:#cccccc;fill-opacity:1.0;fill-rule: evenodd"/>
<path id="Pocket029_f0062"  d="M -18.0 64.00000000000097 L -18.0 64.00000000000097 A 2 2 0 0 0 -18 60L -17.999999999987025 59.9999999999972 A 2 2 0 0 1 -18 64Z " stroke="#191919" stroke-width="0.7 px" style="stroke-width:0.7;stroke-miterlimit:4;stroke-dasharray:none;stroke-linecap:square;fill:#cccccc;fill-opacity:1.0;fill-rule: evenodd"/>
<path id="Pocket029_f0063"  d="M -27.99999999998703 59.999999999963805 L -27.99999999998703 59.999999999963805 A 2 2 0 1 0 -28 64L -28.0 64.0 A 2 2 0 1 1 -28 60Z " stroke="#191919" stroke-width="0.7 px" style="stroke-width:0.7;stroke-miterlimit:4;stroke-dasharray:none;stroke-linecap:square;fill:#cccccc;fill-opacity:1.0;fill-rule: evenodd"/>
<path id="Pocket029_f0064"  d="M -17.999999999987025 59.9999999999972 L -17.999999999987025 59.9999999999972 L -27.99999999998703 59.9999999999276 L -27.99999999998703 59.999999999963805 L -17.999999999987025 59.99999999999246 Z " stroke="#191919" stroke-width="0.7 px" style="stroke-width:0.7;stroke-miterlimit:4;stroke-dasharray:none;stroke-linecap:square;fill:#cccccc;fill-opacity:1.0;fill-rule: evenodd"/>
<path id="Pocket029_f0065"  d="M -17.0 96.0 L -17.0 96.0 L -17.0 81.0 L -17.0 81.0 L -17.0 96.0 Z " stroke="#191919" stroke-width="0.7 px" style="stroke-width:0.7;stroke-miterlimit:4;stroke-dasharray:none;stroke-linecap:square;fill:#cccccc;fill-opacity:1.0;fill-rule: evenodd"/>
<path id="Pocket029_f0066"  d="M -17.0 81.0 L -17.0 81.0 L 8.0 81.0 L 8.0 81.0 L -17.0 81.0 Z " stroke="#191919" stroke-width="0.7 px" style="stroke-width:0.7;stroke-miterlimit:4;stroke-dasharray:none;stroke-linecap:square;fill:#cccccc;fill-opacity:1.0;fill-rule: evenodd"/>
<path id="Pocket029_f0067"  d="M 8.0 96.0 L 8.0 96.0 L -17.0 96.0 L -17.0 96.0 L 8.0 96.0 Z " stroke="#191919" stroke-width="0.7 px" style="stroke-width:0.7;stroke-miterlimit:4;stroke-dasharray:none;stroke-linecap:square;fill:#cccccc;fill-opacity:1.0;fill-rule: evenodd"/>
<path id="Pocket029_f0068"  d="M 8.0 81.0 L 8.0 81.0 L 8.0 96.0 L 8.0 96.0 L 8.0 81.0 Z " stroke="#191919" stroke-width="0.7 px" style="stroke-width:0.7;stroke-miterlimit:4;stroke-dasharray:none;stroke-linecap:square;fill:#cccccc;fill-opacity:1.0;fill-rule: evenodd"/>
<path id="Pocket029_f0069"  d="M -18.0 79.00000000000193 L -28.0 79.00000000000193 L -28.0 79.00000000000193 L -18.0 79.00000000000193 L -18.0 79.00000000000193 Z " stroke="#191919" stroke-width="0.7 px" style="stroke-width:0.7;stroke-miterlimit:4;stroke-dasharray:none;stroke-linecap:square;fill:#cccccc;fill-opacity:1.0;fill-rule: evenodd"/>
<path id="Pocket029_f0070"  d="M -18.0 79.00000000000193 L -18.0 79.00000000000193 A 2 2 0 0 0 -18 75L -18.0 75.00000000000193 A 2 2 0 0 1 -18 79Z " stroke="#191919" stroke-width="0.7 px" style="stroke-width:0.7;stroke-miterlimit:4;stroke-dasharray:none;stroke-linecap:square;fill:#cccccc;fill-opacity:1.0;fill-rule: evenodd"/>
<path id="Pocket029_f0071"  d="M -28.0 75.00000000000193 L -28.0 75.00000000000193 A 2 2 0 0 0 -28 79L -28.0 79.00000000000193 A 2 2 0 0 1 -28 75Z " stroke="#191919" stroke-width="0.7 px" style="stroke-width:0.7;stroke-miterlimit:4;stroke-dasharray:none;stroke-linecap:square;fill:#cccccc;fill-opacity:1.0;fill-rule: evenodd"/>
<path id="Pocket029_f0072"  d="M -18.0 75.00000000000193 L -18.0 75.00000000000193 L -28.0 75.00000000000193 L -28.0 75.00000000000193 L -18.0 75.00000000000193 Z " stroke="#191919" stroke-width="0.7 px" style="stroke-width:0.7;stroke-miterlimit:4;stroke-dasharray:none;stroke-linecap:square;fill:#cccccc;fill-opacity:1.0;fill-rule: evenodd"/>
<circle cx="-42.25000000000001" cy="63.75" r="2.0" stroke="#191919" stroke-width="0.7 px" style="stroke-width:0.7;stroke-miterlimit:4;stroke-dasharray:none;stroke-linecap:square;fill:#cccccc"/>
<path id="Pocket029_f0074"  d="M -52.25 71.75 L -52.25 71.75 L -42.25 71.75 L -42.25 71.75 L -52.25 71.75 Z " stroke="#191919" stroke-width="0.7 px" style="stroke-width:0.7;stroke-miterlimit:4;stroke-dasharray:none;stroke-linecap:square;fill:#cccccc;fill-opacity:1.0;fill-rule: evenodd"/>
<path id="Pocket029_f0075"  d="M -52.25 86.75 L -52.25 86.75 L -52.25 71.75 L -52.25 71.75 L -52.25 86.75 Z " stroke="#191919" stroke-width="0.7 px" style="stroke-width:0.7;stroke-miterlimit:4;stroke-dasharray:none;stroke-linecap:square;fill:#cccccc;fill-opacity:1.0;fill-rule: evenodd"/>
<path id="Pocket029_f0076"  d="M -42.25 86.75 L -42.25 86.75 L -52.25 86.75 L -52.25 86.75 L -42.25 86.75 Z " stroke="#191919" stroke-width="0.7 px" style="stroke-width:0.7;stroke-miterlimit:4;stroke-dasharray:none;stroke-linecap:square;fill:#cccccc;fill-opacity:1.0;fill-rule: evenodd"/>
<path id="Pocket029_f0077"  d="M -42.25 71.75 L -42.25 71.75 L -42.25 86.75 L -42.25 86.75 L -42.25 71.75 Z " stroke="#191919" stroke-width="0.7 px" style="stroke-width:0.7;stroke-miterlimit:4;stroke-dasharray:none;stroke-linecap:square;fill:#cccccc;fill-opacity:1.0;fill-rule: evenodd"/>
<circle cx="-42.25000000000001" cy="94.75" r="2.0" stroke="#191919" stroke-width="0.7 px" style="stroke-width:0.7;stroke-miterlimit:4;stroke-dasharray:none;stroke-linecap:square;fill:#cccccc"/>
<circle cx="24.5" cy="168.0" r="2.0" stroke="#191919" stroke-width="0.7 px" style="stroke-width:0.7;stroke-miterlimit:4;stroke-dasharray:none;stroke-linecap:square;fill:#cccccc"/>
<circle cx="24.5" cy="188.3" r="2.0" stroke="#191919" stroke-width="0.7 px" style="stroke-width:0.7;stroke-miterlimit:4;stroke-dasharray:none;stroke-linecap:square;fill:#cccccc"/>
<circle cx="-24.5" cy="168.0" r="2.0" stroke="#191919" stroke-width="0.7 px" style="stroke-width:0.7;stroke-miterlimit:4;stroke-dasharray:none;stroke-linecap:square;fill:#cccccc"/>
<circle cx="-24.5" cy="188.3" r="2.0" stroke="#191919" stroke-width="0.7 px" style="stroke-width:0.7;stroke-miterlimit:4;stroke-dasharray:none;stroke-linecap:square;fill:#cccccc"/>
<circle cx="-24.499999999999996" cy="7.8500000000000005" r="2.0" stroke="#191919" stroke-width="0.7 px" style="stroke-width:0.7;stroke-miterlimit:4;stroke-dasharray:none;stroke-linecap:square;fill:#cccccc"/>
<title>b'Pocket029'</title>
</g>
</svg>