<?xml version="1.0"?>
<!DOCTYPE svg PUBLIC "-//W3C//DTD SVG 1.1//EN" "http://www.w3.org/Graphics/SVG/1.1/DTD/svg11.dtd">
<svg width="10.200000000000031mm" height="14.200000000000019mm" viewBox="0 0 10.200000000000031 14.200000000000019" xmlns="http://www.w3.org/2000/svg" version="1.1">
<g id="Body014" transform="translate(132.350000,0.100000) scale(1,-1)">
<path id="Body014_f0001"  d="M -132.2500000000001 1.8707257964933913e-14 L -122.25000000000011 1.8707257964933913e-14 L -122.25000000000011 -13.99999999999999 L -132.2500000000001 -13.99999999999999 L -132.2500000000001 1.870725796493391e-14 Z " stroke="#191919" stroke-width="0.7 px" style="stroke-width:0.7;stroke-miterlimit:4;stroke-dasharray:none;stroke-linecap:square;fill:#cccccc;fill-opacity:1.0;fill-rule: evenodd"/>
<path id="Body014_f0002"  d="M -132.2500000000001 9.159339953157562e-15 L -122.25000000000011 9.159339953157562e-15 L -122.25000000000011 1.870725796493391e-14 L -132.2500000000001 1.870725796493391e-14 L -132.2500000000001 9.159339953157562e-15 Z M -124.25000000000009 9.936496070395168e-15 M -124.25000000000009 9.936496070395167e-15 L -124.25000000000009 9.936496070395167e-15 Z M -124.25000000000009 1.7930101847696307e-14 M -124.25000000000009 1.793010184769631e-14 L -124.25000000000009 1.793010184769631e-14 Z " stroke="#191919" stroke-width="0.7 px" style="stroke-width:0.7;stroke-miterlimit:4;stroke-dasharray:none;stroke-linecap:square;fill:#cccccc;fill-opacity:1.0;fill-rule: evenodd"/>
<path id="Body014_f0003"  d="M -132.2500000000001 -13.99999999999999 L -132.2500000000001 -14.0 L -122.25000000000011 -14.0 L -122.25000000000011 -13.99999999999999 L -132.2500000000001 -13.99999999999999 Z M -124.25000000000009 -14.0 M -124.25000000000009 -13.999999999999998 L -124.25000000000009 -13.999999999999998 Z M -124.25000000000009 -13.999999999999991 M -124.25000000000009 -13.99999999999999 L -124.25000000000009 -13.99999999999999 Z " stroke="#191919" stroke-width="0.7 px" style="stroke-width:0.7;stroke-miterlimit:4;stroke-dasharray:none;stroke-linecap:square;fill:#cccccc;fill-opacity:1.0;fill-rule: evenodd"/>
<path id="Body014_f0004"  d="M -122.25000000000011 9.159339953157564e-15 L -132.2500000000001 9.159339953157564e-15 L -132.2500000000001 -14.0 L -122.25000000000011 -14.0 L -122.25000000000011 9.159339953157562e-15 Z " stroke="#191919" stroke-width="0.7 px" style="stroke-width:0.7;stroke-miterlimit:4;stroke-dasharray:none;stroke-linecap:square;fill:#cccccc;fill-opacity:1.0;fill-rule: evenodd"/>
<path id="Body014_f0005"  d="M -122.2500000000001 -6.199999999999987 M -122.2500000000001 -6.199999999999989 L -122.2500000000001 -6.199999999999989 L -132.2500000000001 -6.199999999999988 M -132.2500000000001 -6.199999999999987 L -132.2500000000001 -6.199999999999987 Z " stroke="#191919" stroke-width="0.7 px" style="stroke-width:0.7;stroke-miterlimit:4;stroke-dasharray:none;stroke-linecap:square;fill:#cccccc;fill-opacity:1.0;fill-rule: evenodd"/>
<path id="Body014_f0007"  d="M -122.25000000000011 -10.04665256252501 L -132.25000000000014 -10.04665256252501 M -132.2500000000001 -10.046652562525964 L -132.2500000000001 -11.807026626964301 L -132.2500000000001 -2.1929733730342145 L -132.2500000000001 -3.9533474374760043 L -122.25000000000011 -3.953347437475924 M -122.25000000000011 -3.9533474374760047 L -122.25000000000011 -2.1929733730342127 L -122.25000000000011 -11.807026626964301 L -122.25000000000011 -10.046652562525967 Z " stroke="#191919" stroke-width="0.7 px" style="stroke-width:0.7;stroke-miterlimit:4;stroke-dasharray:none;stroke-linecap:square;fill:#cccccc;fill-opacity:1.0;fill-rule: evenodd"/>
<path id="Body014_f0008"  d="M -122.25000000000011 -3.953347437475924 L -132.25000000000014 -3.953347437475924 M -132.25000000000014 -3.953347437475845 L -132.25000000000014 -10.046652562524049 L -122.25000000000011 -10.04665256252501 M -122.25000000000011 -10.04665256252405 L -122.25000000000011 -3.9533474374758453 Z " stroke="#191919" stroke-width="0.7 px" style="stroke-width:0.7;stroke-miterlimit:4;stroke-dasharray:none;stroke-linecap:square;fill:#cccccc;fill-opacity:1.0;fill-rule: evenodd"/>
<path id="Body014_f0010"  d="M -124.25000000000009 9.936496070395168e-15 M -124.25000000000009 9.936496070395167e-15 L -124.25000000000009 9.936496070395167e-15 L -124.25000000000009 -4.999999999999998 M -124.25000000000009 -4.999999999999997 L -124.25000000000009 -4.999999999999997 Z " stroke="#191919" stroke-width="0.7 px" style="stroke-width:0.7;stroke-miterlimit:4;stroke-dasharray:none;stroke-linecap:square;fill:#cccccc;fill-opacity:1.0;fill-rule: evenodd"/>
<path id="Body014_f0011"  d="M -124.25000000000009 1.7930101847696307e-14 M -124.25000000000009 1.793010184769631e-14 L -124.25000000000009 1.793010184769631e-14 L -124.25000000000009 -4.99999999999999 M -124.25000000000009 -4.999999999999989 L -124.25000000000009 -4.999999999999989 Z " stroke="#191919" stroke-width="0.7 px" style="stroke-width:0.7;stroke-miterlimit:4;stroke-dasharray:none;stroke-linecap:square;fill:#cccccc;fill-opacity:1.0;fill-rule: evenodd"/>
<path id="Body014_f0014"  d="M -124.25000000000009 -4.999999999999998 M -124.25000000000009 -4.999999999999997 L -124.25000000000009 -4.999999999999997 Z " stroke="#191919" stroke-width="0.7 px" style="stroke-width:0.7;stroke-miterlimit:4;stroke-dasharray:none;stroke-linecap:square;fill:#cccccc;fill-opacity:1.0;fill-rule: evenodd"/>
<path id="Body014_f0015"  d="M -124.25000000000009 -4.99999999999999 M -124.25000000000009 -4.999999999999989 L -124.25000000000009 -4.999999999999989 Z " stroke="#191919" stroke-width="0.7 px" style="stroke-width:0.7;stroke-miterlimit:4;stroke-dasharray:none;stroke-linecap:square;fill:#cccccc;fill-opacity:1.0;fill-rule: evenodd"/>
<title>b'Body'</title>
</g>
</svg>