<?xml version="1.0"?>
<!DOCTYPE svg PUBLIC "-//W3C//DTD SVG 1.1//EN" "http://www.w3.org/Graphics/SVG/1.1/DTD/svg11.dtd">
<svg width="117.3mm" height="202.3mm" viewBox="0 0 117.3 202.3" xmlns="http://www.w3.org/2000/svg" version="1.1">
<g id="Pocket026" transform="translate(58.650000,204.150000) scale(1,-1)">
<circle cx="24.499999999999996" cy="7.8500000000000005" r="2.0" stroke="#191919" stroke-width="0.7 px" style="stroke-width:0.7;stroke-miterlimit:4;stroke-dasharray:none;stroke-linecap:square;fill:#cccccc"/>
<path id="Pocket026_f0001"  d="M -22.5 4.0001 L -22.5 4.0 L -22.5 4.0 L -22.5 4.0001 L -22.5 4.0001 Z " stroke="#191919" stroke-width="0.7 px" style="stroke-width:0.7;stroke-miterlimit:4;stroke-dasharray:none;stroke-linecap:square;fill:#cccccc;fill-opacity:1.0;fill-rule: evenodd"/>
<path id="Pocket026_f0002"  d="M -22.5 4.0001 A 0.9999 0.9999 0 0 0 -21.5001 5L -21.5001 5.0 A 0.9999 0.9999 0 0 1 -22.5 4.0001L -22.5 4.0001 Z " stroke="#191919" stroke-width="0.7 px" style="stroke-width:0.7;stroke-miterlimit:4;stroke-dasharray:none;stroke-linecap:square;fill:#cccccc;fill-opacity:1.0;fill-rule: evenodd"/>
<path id="Pocket026_f0003"  d="M -23.5 3.0 A 1 1 0 0 1 -22.5 4L -22.5 4.0 A 1 1 0 0 0 -23.5 3L -23.5 3.0 Z " stroke="#191919" stroke-width="0.7 px" style="stroke-width:0.7;stroke-miterlimit:4;stroke-dasharray:none;stroke-linecap:square;fill:#cccccc;fill-opacity:1.0;fill-rule: evenodd"/>
<path id="Pocket026_f0004"  d="M 21.5001 5.0 L -21.5001 5.0 L -21.5001 4.999999999999999 L 21.5001 5.0 L 21.5001 5.0 Z " stroke="#191919" stroke-width="0.7 px" style="stroke-width:0.7;stroke-miterlimit:4;stroke-dasharray:none;stroke-linecap:square;fill:#cccccc;fill-opacity:1.0;fill-rule: evenodd"/>
<path id="Pocket026_f0005"  d="M -23.5 3.0 L -27.0 3.0 L -27.0 3.0 L -23.5 3.0 L -23.5 3.0 Z " stroke="#191919" stroke-width="0.7 px" style="stroke-width:0.7;stroke-miterlimit:4;stroke-dasharray:none;stroke-linecap:square;fill:#cccccc;fill-opacity:1.0;fill-rule: evenodd"/>
<path id="Pocket026_f0006"  d="M 21.5001 5.0 A 0.9999 0.9999 0 0 0 22.5 4.0001L 22.5 4.000100000000001 A 0.9999 0.9999 0 0 1 21.5001 5L 21.5001 5.0 Z " stroke="#191919" stroke-width="0.7 px" style="stroke-width:0.7;stroke-miterlimit:4;stroke-dasharray:none;stroke-linecap:square;fill:#cccccc;fill-opacity:1.0;fill-rule: evenodd"/>
<path id="Pocket026_f0007"  d="M -29.0 5.0 A 2 2 0 0 1 -27 3L -27.0 3.0 A 2 2 0 0 0 -29 5L -29.0 5.0 Z " stroke="#191919" stroke-width="0.7 px" style="stroke-width:0.7;stroke-miterlimit:4;stroke-dasharray:none;stroke-linecap:square;fill:#cccccc;fill-opacity:1.0;fill-rule: evenodd"/>
<path id="Pocket026_f0008"  d="M 22.5 4.0001 L 22.5 4.0 L 22.5 4.0 L 22.5 4.0001 L 22.5 4.0001 Z " stroke="#191919" stroke-width="0.7 px" style="stroke-width:0.7;stroke-miterlimit:4;stroke-dasharray:none;stroke-linecap:square;fill:#cccccc;fill-opacity:1.0;fill-rule: evenodd"/>
<path id="Pocket026_f0009"  d="M -29.0 5.0 L -29.0 31.0 L -29.0 31.0 L -29.0 5.0 L -29.0 5.0 Z " stroke="#191919" stroke-width="0.7 px" style="stroke-width:0.7;stroke-miterlimit:4;stroke-dasharray:none;stroke-linecap:square;fill:#cccccc;fill-opacity:1.0;fill-rule: evenodd"/>
<path id="Pocket026_f0010"  d="M 22.5 4.0 A 1 1 0 0 1 23.5 3L 23.5 3.0 A 1 1 0 0 0 22.5 4L 22.5 4.0 Z " stroke="#191919" stroke-width="0.7 px" style="stroke-width:0.7;stroke-miterlimit:4;stroke-dasharray:none;stroke-linecap:square;fill:#cccccc;fill-opacity:1.0;fill-rule: evenodd"/>
<path id="Pocket026_f0011"  d="M -27.0 33.0 A 2 2 0 0 1 -29 31L -29.0 31.0 A 2 2 0 0 0 -27 33L -27.0 33.0 Z " stroke="#191919" stroke-width="0.7 px" style="stroke-width:0.7;stroke-miterlimit:4;stroke-dasharray:none;stroke-linecap:square;fill:#cccccc;fill-opacity:1.0;fill-rule: evenodd"/>
<path id="Pocket026_f0012"  d="M 23.5 3.0 L 27.0 3.0 L 27.0 3.0 L 23.5 3.0 L 23.5 3.0 Z " stroke="#191919" stroke-width="0.7 px" style="stroke-width:0.7;stroke-miterlimit:4;stroke-dasharray:none;stroke-linecap:square;fill:#cccccc;fill-opacity:1.0;fill-rule: evenodd"/>
<path id="Pocket026_f0013"  d="M -27.0 33.0 L -22.5 33.0 L -22.5 33.0 L -27.0 33.0 L -27.0 33.0 Z " stroke="#191919" stroke-width="0.7 px" style="stroke-width:0.7;stroke-miterlimit:4;stroke-dasharray:none;stroke-linecap:square;fill:#cccccc;fill-opacity:1.0;fill-rule: evenodd"/>
<path id="Pocket026_f0014"  d="M 29.0 5.0 A 2 2 0 0 0 27 3L 27.0 3.0 A 2 2 0 0 1 29 5L 29.0 5.0 Z " stroke="#191919" stroke-width="0.7 px" style="stroke-width:0.7;stroke-miterlimit:4;stroke-dasharray:none;stroke-linecap:square;fill:#cccccc;fill-opacity:1.0;fill-rule: evenodd"/>
<path id="Pocket026_f0015"  d="M -22.5 33.0 L -22.5 58.0 L -22.5 58.0 L -22.5 33.0 L -22.5 33.0 Z " stroke="#191919" stroke-width="0.7 px" style="stroke-width:0.7;stroke-miterlimit:4;stroke-dasharray:none;stroke-linecap:square;fill:#cccccc;fill-opacity:1.0;fill-rule: evenodd"/>
<path id="Pocket026_f0016"  d="M 29.0 5.0 L 29.0 31.0 L 29.0 31.0 L 29.0 5.0 L 29.0 5.0 Z " stroke="#191919" stroke-width="0.7 px" style="stroke-width:0.7;stroke-miterlimit:4;stroke-dasharray:none;stroke-linecap:square;fill:#cccccc;fill-opacity:1.0;fill-rule: evenodd"/>
<path id="Pocket026_f0017"  d="M -22.5 58.0 L -55.5 58.0 L -55.5 58.0 L -22.5 58.0 L -22.5 58.0 Z " stroke="#191919" stroke-width="0.7 px" style="stroke-width:0.7;stroke-miterlimit:4;stroke-dasharray:none;stroke-linecap:square;fill:#cccccc;fill-opacity:1.0;fill-rule: evenodd"/>
<path id="Pocket026_f0018"  d="M 27.0 33.0 A 2 2 0 0 0 29 31L 29.0 31.0 A 2 2 0 0 1 27 33L 27.0 33.0 Z " stroke="#191919" stroke-width="0.7 px" style="stroke-width:0.7;stroke-miterlimit:4;stroke-dasharray:none;stroke-linecap:square;fill:#cccccc;fill-opacity:1.0;fill-rule: evenodd"/>
<path id="Pocket026_f0019"  d="M -57.5 60.0 A 2 2 0 0 1 -55.5 58L -55.5 58.0 A 2 2 0 0 0 -57.5 60L -57.5 60.0 Z " stroke="#191919" stroke-width="0.7 px" style="stroke-width:0.7;stroke-miterlimit:4;stroke-dasharray:none;stroke-linecap:square;fill:#cccccc;fill-opacity:1.0;fill-rule: evenodd"/>
<path id="Pocket026_f0020"  d="M 27.0 33.0 L 22.5 33.0 L 22.5 33.0 L 27.0 33.0 L 27.0 33.0 Z " stroke="#191919" stroke-width="0.7 px" style="stroke-width:0.7;stroke-miterlimit:4;stroke-dasharray:none;stroke-linecap:square;fill:#cccccc;fill-opacity:1.0;fill-rule: evenodd"/>
<path id="Pocket026_f0021"  d="M -57.5 60.0 L -57.5 131.0 L -57.5 131.0 L -57.5 60.0 L -57.5 60.0 Z " stroke="#191919" stroke-width="0.7 px" style="stroke-width:0.7;stroke-miterlimit:4;stroke-dasharray:none;stroke-linecap:square;fill:#cccccc;fill-opacity:1.0;fill-rule: evenodd"/>
<path id="Pocket026_f0022"  d="M 22.5 58.0 L 22.5 58.0 L 22.5 33.0 L 22.5 33.0 L 22.5 58.0 Z " stroke="#191919" stroke-width="0.7 px" style="stroke-width:0.7;stroke-miterlimit:4;stroke-dasharray:none;stroke-linecap:square;fill:#cccccc;fill-opacity:1.0;fill-rule: evenodd"/>
<path id="Pocket026_f0023"  d="M -55.5 133.0 A 2 2 0 0 1 -57.5 131L -57.5 131.0 A 2 2 0 0 0 -55.5 133L -55.5 133.0 Z " stroke="#191919" stroke-width="0.7 px" style="stroke-width:0.7;stroke-miterlimit:4;stroke-dasharray:none;stroke-linecap:square;fill:#cccccc;fill-opacity:1.0;fill-rule: evenodd"/>
<path id="Pocket026_f0024"  d="M 22.5 58.0 L 55.5 58.0 L 55.5 58.0 L 22.5 58.0 L 22.5 58.0 Z " stroke="#191919" stroke-width="0.7 px" style="stroke-width:0.7;stroke-miterlimit:4;stroke-dasharray:none;stroke-linecap:square;fill:#cccccc;fill-opacity:1.0;fill-rule: evenodd"/>
<path id="Pocket026_f0025"  d="M -55.5 133.0 L -32.0 133.0 L -32.0 133.0 L -55.5 133.0 L -55.5 133.0 Z " stroke="#191919" stroke-width="0.7 px" style="stroke-width:0.7;stroke-miterlimit:4;stroke-dasharray:none;stroke-linecap:square;fill:#cccccc;fill-opacity:1.0;fill-rule: evenodd"/>
<path id="Pocket026_f0026"  d="M 57.5 60.0 A 2 2 0 0 0 55.5 58L 55.5 58.0 A 2 2 0 0 1 57.5 60L 57.5 60.0 Z " stroke="#191919" stroke-width="0.7 px" style="stroke-width:0.7;stroke-miterlimit:4;stroke-dasharray:none;stroke-linecap:square;fill:#cccccc;fill-opacity:1.0;fill-rule: evenodd"/>
<path id="Pocket026_f0027"  d="M -32.0 133.0 L -32.0 201.0 L -32.0 201.0 L -32.0 133.0 L -32.0 133.0 Z " stroke="#191919" stroke-width="0.7 px" style="stroke-width:0.7;stroke-miterlimit:4;stroke-dasharray:none;stroke-linecap:square;fill:#cccccc;fill-opacity:1.0;fill-rule: evenodd"/>
<path id="Pocket026_f0028"  d="M 57.5 60.0 L 57.5 131.0 L 57.5 131.0 L 57.5 60.0 L 57.5 60.0 Z " stroke="#191919" stroke-width="0.7 px" style="stroke-width:0.7;stroke-miterlimit:4;stroke-dasharray:none;stroke-linecap:square;fill:#cccccc;fill-opacity:1.0;fill-rule: evenodd"/>
<path id="Pocket026_f0029"  d="M -30.0 203.0 A 2 2 0 0 1 -32 201L -32.0 201.0 A 2 2 0 0 0 -30 203L -30.0 203.0 Z " stroke="#191919" stroke-width="0.7 px" style="stroke-width:0.7;stroke-miterlimit:4;stroke-dasharray:none;stroke-linecap:square;fill:#cccccc;fill-opacity:1.0;fill-rule: evenodd"/>
<path id="Pocket026_f0030"  d="M 55.5 133.0 A 2 2 0 0 0 57.5 131L 57.5 131.0 A 2 2 0 0 1 55.5 133L 55.5 133.0 Z " stroke="#191919" stroke-width="0.7 px" style="stroke-width:0.7;stroke-miterlimit:4;stroke-dasharray:none;stroke-linecap:square;fill:#cccccc;fill-opacity:1.0;fill-rule: evenodd"/>
<path id="Pocket026_f0031"  d="M 30.0 203.0 L -30.0 203.0 L -30.0 203.0 L 30.0 203.0 L 30.0 203.0 Z " stroke="#191919" stroke-width="0.7 px" style="stroke-width:0.7;stroke-miterlimit:4;stroke-dasharray:none;stroke-linecap:square;fill:#cccccc;fill-opacity:1.0;fill-rule: evenodd"/>
<path id="Pocket026_f0032"  d="M 55.5 133.0 L 32.0 133.0 L 32.0 133.0 L 55.5 133.0 L 55.5 133.0 Z " stroke="#191919" stroke-width="0.7 px" style="stroke-width:0.7;stroke-miterlimit:4;stroke-dasharray:none;stroke-linecap:square;fill:#cccccc;fill-opacity:1.0;fill-rule: evenodd"/>
<path id="Pocket026_f0033"  d="M 32.0 201.0 A 2 2 0 0 1 30 203L 30.0 203.0 A 2 2 0 0 0 32 201L 32.0 201.0 Z " stroke="#191919" stroke-width="0.7 px" style="stroke-width:0.7;stroke-miterlimit:4;stroke-dasharray:none;stroke-linecap:square;fill:#cccccc;fill-opacity:1.0;fill-rule: evenodd"/>
<path id="Pocket026_f0034"  d="M 32.0 133.0 L 32.0 201.0 L 32.0 201.0 L 32.0 133.0 L 32.0 133.0 Z " stroke="#191919" stroke-width="0.7 px" style="stroke-width:0.7;stroke-miterlimit:4;stroke-dasharray:none;stroke-linecap:square;fill:#cccccc;fill-opacity:1.0;fill-rule: evenodd"/>
<circle cx="24.499999999999996" cy="7.8500000000000005" r="2.0" stroke="#191919" stroke-width="0.7 px" style="stroke-width:0.7;stroke-miterlimit:4;stroke-dasharray:none;stroke-linecap:square;fill:#cccccc"/>
<circle cx="24.499999999999996" cy="28.150000000000002" r="2.0" stroke="#191919" stroke-width="0.7 px" style="stroke-width:0.7;stroke-miterlimit:4;stroke-dasharray:none;stroke-linecap:square;fill:#cccccc"/>
<circle cx="18.0" cy="10.000000000000002" r="2.0" stroke="#191919" stroke-width="0.7 px" style="stroke-width:0.7;stroke-miterlimit:4;stroke-dasharray:none;stroke-linecap:square;fill:#cccccc"/>
<path id="Pocket026_f0038"  d="M 18.16 64.00000000000193 L 8.159999999999998 64.00000000000193 L 8.159999999999998 64.00000000000193 L 18.16 64.00000000000193 L 18.16 64.00000000000193 Z " stroke="#191919" stroke-width="0.7 px" style="stroke-width:0.7;stroke-miterlimit:4;stroke-dasharray:none;stroke-linecap:square;fill:#cccccc;fill-opacity:1.0;fill-rule: evenodd"/>
<path id="Pocket026_f0039"  d="M 18.16 64.00000000000193 L 18.16 64.00000000000193 A 2 2 0 0 0 18.16 60L 18.16 60.00000000000193 A 2 2 0 0 1 18.16 64Z " stroke="#191919" stroke-width="0.7 px" style="stroke-width:0.7;stroke-miterlimit:4;stroke-dasharray:none;stroke-linecap:square;fill:#cccccc;fill-opacity:1.0;fill-rule: evenodd"/>
<path id="Pocket026_f0040"  d="M 18.16 60.00000000000193 L 18.16 60.00000000000193 L 8.159999999999998 60.00000000000193 L 8.159999999999998 60.00000000000193 L 18.16 60.00000000000193 Z " stroke="#191919" stroke-width="0.7 px" style="stroke-width:0.7;stroke-miterlimit:4;stroke-dasharray:none;stroke-linecap:square;fill:#cccccc;fill-opacity:1.0;fill-rule: evenodd"/>
<path id="Pocket026_f0041"  d="M 8.159999999999998 60.00000000000193 L 8.159999999999998 60.00000000000193 A 2 2 0 0 0 8.16 64L 8.159999999999998 64.00000000000193 A 2 2 0 0 1 8.16 60Z " stroke="#191919" stroke-width="0.7 px" style="stroke-width:0.7;stroke-miterlimit:4;stroke-dasharray:none;stroke-linecap:square;fill:#cccccc;fill-opacity:1.0;fill-rule: evenodd"/>
<path id="Pocket026_f0042"  d="M 18.159999999999997 79.00000000000193 L 8.159999999999997 79.00000000000193 L 8.159999999999997 79.00000000000193 L 18.159999999999997 79.00000000000193 L 18.159999999999997 79.00000000000193 Z " stroke="#191919" stroke-width="0.7 px" style="stroke-width:0.7;stroke-miterlimit:4;stroke-dasharray:none;stroke-linecap:square;fill:#cccccc;fill-opacity:1.0;fill-rule: evenodd"/>
<path id="Pocket026_f0043"  d="M 18.159999999999997 79.00000000000193 L 18.159999999999997 79.00000000000193 A 2 2 0 0 0 18.16 75L 18.16 75.00000000000193 A 2 2 0 0 1 18.16 79Z " stroke="#191919" stroke-width="0.7 px" style="stroke-width:0.7;stroke-miterlimit:4;stroke-dasharray:none;stroke-linecap:square;fill:#cccccc;fill-opacity:1.0;fill-rule: evenodd"/>
<path id="Pocket026_f0044"  d="M 18.16 75.00000000000193 L 18.16 75.00000000000193 L 8.159999999999998 75.00000000000193 L 8.159999999999998 75.00000000000193 L 18.16 75.00000000000193 Z " stroke="#191919" stroke-width="0.7 px" style="stroke-width:0.7;stroke-miterlimit:4;stroke-dasharray:none;stroke-linecap:square;fill:#cccccc;fill-opacity:1.0;fill-rule: evenodd"/>
<path id="Pocket026_f0045"  d="M 8.159999999999998 75.00000000000193 L 8.159999999999998 75.00000000000193 A 2 2 0 0 0 8.16 79L 8.159999999999997 79.00000000000193 A 2 2 0 0 1 8.16 75Z " stroke="#191919" stroke-width="0.7 px" style="stroke-width:0.7;stroke-miterlimit:4;stroke-dasharray:none;stroke-linecap:square;fill:#cccccc;fill-opacity:1.0;fill-rule: evenodd"/>
<circle cx="-18.0" cy="10.000000000000002" r="2.0" stroke="#191919" stroke-width="0.7 px" style="stroke-width:0.7;stroke-miterlimit:4;stroke-dasharray:none;stroke-linecap:square;fill:#cccccc"/>
<circle cx="-24.499999999999996" cy="7.8500000000000005" r="2.0" stroke="#191919" stroke-width="0.7 px" style="stroke-width:0.7;stroke-miterlimit:4;stroke-dasharray:none;stroke-linecap:square;fill:#cccccc"/>
<circle cx="-24.499999999999996" cy="28.150000000000002" r="2.0" stroke="#191919" stroke-width="0.7 px" style="stroke-width:0.7;stroke-miterlimit:4;stroke-dasharray:none;stroke-linecap:square;fill:#cccccc"/>
<path id="Pocket026_f0049"  d="M -17.0 93.0 L -17.0 93.0 L -17.0 81.0 L -17.0 81.0 L -17.0 93.0 Z " stroke="#191919" stroke-width="0.7 px" style="stroke-width:0.7;stroke-miterlimit:4;stroke-dasharray:none;stroke-linecap:square;fill:#cccccc;fill-opacity:1.0;fill-rule: evenodd"/>
<path id="Pocket026_f0050"  d="M -17.0 81.0 L -17.0 81.0 L 8.0 81.0 L 8.0 81.0 L -17.0 81.0 Z " stroke="#191919" stroke-width="0.7 px" style="stroke-width:0.7;stroke-miterlimit:4;stroke-dasharray:none;stroke-linecap:square;fill:#cccccc;fill-opacity:1.0;fill-rule: evenodd"/>
<path id="Pocket026_f0051"  d="M 8.0 93.0 L 8.0 93.0 L -17.0 93.0 L -17.0 93.0 L 8.0 93.0 Z " stroke="#191919" stroke-width="0.7 px" style="stroke-width:0.7;stroke-miterlimit:4;stroke-dasharray:none;stroke-linecap:square;fill:#cccccc;fill-opacity:1.0;fill-rule: evenodd"/>
<path id="Pocket026_f0052"  d="M 8.0 81.0 L 8.0 81.0 L 8.0 93.0 L 8.0 93.0 L 8.0 81.0 Z " stroke="#191919" stroke-width="0.7 px" style="stroke-width:0.7;stroke-miterlimit:4;stroke-dasharray:none;stroke-linecap:square;fill:#cccccc;fill-opacity:1.0;fill-rule: evenodd"/>
<path id="Pocket026_f0053"  d="M -18.0 64.0000000000194 L -28.0 64.00000000001843 L -28.0 64.00000000001843 L -18.0 64.0000000000194 L -18.0 64.0000000000194 Z " stroke="#191919" stroke-width="0.7 px" style="stroke-width:0.7;stroke-miterlimit:4;stroke-dasharray:none;stroke-linecap:square;fill:#cccccc;fill-opacity:1.0;fill-rule: evenodd"/>
<path id="Pocket026_f0054"  d="M -18.0 64.0000000000194 L -18.0 64.0000000000194 A 2 2 0 0 0 -18 60L -17.999999999987025 59.9999999999972 A 2 2 0 0 1 -18 64Z " stroke="#191919" stroke-width="0.7 px" style="stroke-width:0.7;stroke-miterlimit:4;stroke-dasharray:none;stroke-linecap:square;fill:#cccccc;fill-opacity:1.0;fill-rule: evenodd"/>
<path id="Pocket026_f0055"  d="M -17.999999999987025 59.9999999999972 L -17.999999999987025 59.9999999999972 L -27.99999999998703 60.0 L -27.99999999998703 60.0 L -17.999999999987025 59.999999999992454 Z " stroke="#191919" stroke-width="0.7 px" style="stroke-width:0.7;stroke-miterlimit:4;stroke-dasharray:none;stroke-linecap:square;fill:#cccccc;fill-opacity:1.0;fill-rule: evenodd"/>
<path id="Pocket026_f0056"  d="M -27.99999999998703 60.0 L -27.99999999998703 60.0 A 2 2 0 1 0 -28 64L -28.0 64.00000000001843 A 2 2 0 1 1 -28 60Z " stroke="#191919" stroke-width="0.7 px" style="stroke-width:0.7;stroke-miterlimit:4;stroke-dasharray:none;stroke-linecap:square;fill:#cccccc;fill-opacity:1.0;fill-rule: evenodd"/>
<path id="Pocket026_f0057"  d="M -18.0 79.00000000000193 L -28.0 79.00000000000193 L -28.0 79.00000000000193 L -18.0 79.00000000000193 L -18.0 79.00000000000193 Z " stroke="#191919" stroke-width="0.7 px" style="stroke-width:0.7;stroke-miterlimit:4;stroke-dasharray:none;stroke-linecap:square;fill:#cccccc;fill-opacity:1.0;fill-rule: evenodd"/>
<path id="Pocket026_f0058"  d="M -18.0 79.00000000000193 L -18.0 79.00000000000193 A 2 2 0 0 0 -18 75L -18.0 75.00000000000193 A 2 2 0 0 1 -18 79Z " stroke="#191919" stroke-width="0.7 px" style="stroke-width:0.7;stroke-miterlimit:4;stroke-dasharray:none;stroke-linecap:square;fill:#cccccc;fill-opacity:1.0;fill-rule: evenodd"/>
<path id="Pocket026_f0059"  d="M -18.0 75.00000000000193 L -18.0 75.00000000000193 L -28.0 75.00000000000193 L -28.0 75.00000000000193 L -18.0 75.00000000000193 Z " stroke="#191919" stroke-width="0.7 px" style="stroke-width:0.7;stroke-miterlimit:4;stroke-dasharray:none;stroke-linecap:square;fill:#cccccc;fill-opacity:1.0;fill-rule: evenodd"/>
<path id="Pocket026_f0060"  d="M -28.0 75.00000000000193 L -28.0 75.00000000000193 A 2 2 0 0 0 -28 79L -28.0 79.00000000000193 A 2 2 0 0 1 -28 75Z " stroke="#191919" stroke-width="0.7 px" style="stroke-width:0.7;stroke-miterlimit:4;stroke-dasharray:none;stroke-linecap:square;fill:#cccccc;fill-opacity:1.0;fill-rule: evenodd"/>
<circle cx="24.5" cy="168.0" r="2.0" stroke="#191919" stroke-width="0.7 px" style="stroke-width:0.7;stroke-miterlimit:4;stroke-dasharray:none;stroke-linecap:square;fill:#cccccc"/>
<circle cx="24.5" cy="188.3" r="2.0" stroke="#191919" stroke-width="0.7 px" style="stroke-width:0.7;stroke-miterlimit:4;stroke-dasharray:none;stroke-linecap:square;fill:#cccccc"/>
<circle cx="-24.5" cy="168.0" r="2.0" stroke="#191919" stroke-width="0.7 px" style="stroke-width:0.7;stroke-miterlimit:4;stroke-dasharray:none;stroke-linecap:square;fill:#cccccc"/>
<circle cx="-24.5" cy="188.3" r="2.0" stroke="#191919" stroke-width="0.7 px" style="stroke-width:0.7;stroke-miterlimit:4;stroke-dasharray:none;stroke-linecap:square;fill:#cccccc"/>
<circle cx="-24.499999999999996" cy="7.8500000000000005" r="2.0" stroke="#191919" stroke-width="0.7 px" style="stroke-width:0.7;stroke-miterlimit:4;stroke-dasharray:none;stroke-linecap:square;fill:#cccccc"/>
<title>b'Pocket026'</title>
</g>
</svg>