<?xml version="1.0"?>
<!DOCTYPE svg PUBLIC "-//W3C//DTD SVG 1.1//EN" "http://www.w3.org/Graphics/SVG/1.1/DTD/svg11.dtd">
<svg width="117.3mm" height="229.3mm" viewBox="0 0 117.3 229.3" xmlns="http://www.w3.org/2000/svg" version="1.1">
<g id="Fillet" transform="translate(58.650000,228.150000) scale(1,-1)">
<path id="Fillet_f0000"  d="M 32.0 157.0 L 32.0 225.0 L 32.0 225.0 L 32.0 157.0 L 32.0 157.0 Z " stroke="#191919" stroke-width="0.7 px" style="stroke-width:0.7;stroke-miterlimit:4;stroke-dasharray:none;stroke-linecap:square;fill:#cccccc;fill-opacity:1.0;fill-rule: evenodd"/>
<circle cx="18.0" cy="10.0" r="2.0" stroke="#191919" stroke-width="0.7 px" style="stroke-width:0.7;stroke-miterlimit:4;stroke-dasharray:none;stroke-linecap:square;fill:#cccccc"/>
<path id="Fillet_f0002"  d="M 32.0 225.0 A 2 2 0 0 1 30 227L 30.0 227.0 A 2 2 0 0 0 32 225L 32.0 225.0 Z " stroke="#191919" stroke-width="0.7 px" style="stroke-width:0.7;stroke-miterlimit:4;stroke-dasharray:none;stroke-linecap:square;fill:#cccccc;fill-opacity:1.0;fill-rule: evenodd"/>
<path id="Fillet_f0003"  d="M 55.5 157.0 L 32.0 157.0 L 32.0 157.0 L 55.5 157.0 L 55.5 157.0 Z " stroke="#191919" stroke-width="0.7 px" style="stroke-width:0.7;stroke-miterlimit:4;stroke-dasharray:none;stroke-linecap:square;fill:#cccccc;fill-opacity:1.0;fill-rule: evenodd"/>
<circle cx="18.0" cy="10.0" r="2.0" stroke="#191919" stroke-width="0.7 px" style="stroke-width:0.7;stroke-miterlimit:4;stroke-dasharray:none;stroke-linecap:square;fill:#cccccc"/>
<path id="Fillet_f0005"  d="M 30.0 227.0 L -30.0 227.0 L -30.0 227.0 L 30.0 227.0 L 30.0 227.0 Z " stroke="#191919" stroke-width="0.7 px" style="stroke-width:0.7;stroke-miterlimit:4;stroke-dasharray:none;stroke-linecap:square;fill:#cccccc;fill-opacity:1.0;fill-rule: evenodd"/>
<path id="Fillet_f0006"  d="M -30.0 227.0 A 2 2 0 0 1 -32 225L -32.0 225.0 A 2 2 0 0 0 -30 227L -30.0 227.0 Z " stroke="#191919" stroke-width="0.7 px" style="stroke-width:0.7;stroke-miterlimit:4;stroke-dasharray:none;stroke-linecap:square;fill:#cccccc;fill-opacity:1.0;fill-rule: evenodd"/>
<path id="Fillet_f0007"  d="M -32.0 157.0 L -32.0 225.0 L -32.0 225.0 L -32.0 157.0 L -32.0 157.0 Z " stroke="#191919" stroke-width="0.7 px" style="stroke-width:0.7;stroke-miterlimit:4;stroke-dasharray:none;stroke-linecap:square;fill:#cccccc;fill-opacity:1.0;fill-rule: evenodd"/>
<path id="Fillet_f0008"  d="M -55.5 157.0 L -32.0 157.0 L -32.0 157.0 L -55.5 157.0 L -55.5 157.0 Z " stroke="#191919" stroke-width="0.7 px" style="stroke-width:0.7;stroke-miterlimit:4;stroke-dasharray:none;stroke-linecap:square;fill:#cccccc;fill-opacity:1.0;fill-rule: evenodd"/>
<path id="Fillet_f0009"  d="M -55.5 157.0 A 2 2 0 0 1 -57.5 155L -57.5 155.0 A 2 2 0 0 0 -55.5 157L -55.5 157.0 Z " stroke="#191919" stroke-width="0.7 px" style="stroke-width:0.7;stroke-miterlimit:4;stroke-dasharray:none;stroke-linecap:square;fill:#cccccc;fill-opacity:1.0;fill-rule: evenodd"/>
<path id="Fillet_f0010"  d="M 55.5 157.0 A 2 2 0 0 0 57.5 155L 57.5 155.0 A 2 2 0 0 1 55.5 157L 55.5 157.0 Z " stroke="#191919" stroke-width="0.7 px" style="stroke-width:0.7;stroke-miterlimit:4;stroke-dasharray:none;stroke-linecap:square;fill:#cccccc;fill-opacity:1.0;fill-rule: evenodd"/>
<path id="Fillet_f0011"  d="M -57.5 89.0 L -57.5 155.0 L -57.5 155.0 L -57.5 89.0 L -57.5 89.0 Z " stroke="#191919" stroke-width="0.7 px" style="stroke-width:0.7;stroke-miterlimit:4;stroke-dasharray:none;stroke-linecap:square;fill:#cccccc;fill-opacity:1.0;fill-rule: evenodd"/>
<path id="Fillet_f0012"  d="M 57.5 89.0 L 57.5 155.0 L 57.5 155.0 L 57.5 89.0 L 57.5 89.0 Z " stroke="#191919" stroke-width="0.7 px" style="stroke-width:0.7;stroke-miterlimit:4;stroke-dasharray:none;stroke-linecap:square;fill:#cccccc;fill-opacity:1.0;fill-rule: evenodd"/>
<path id="Fillet_f0013"  d="M -57.5 89.0 A 2 2 0 0 1 -55.5 87L -55.5 87.0 A 2 2 0 0 0 -57.5 89L -57.5 89.0 Z " stroke="#191919" stroke-width="0.7 px" style="stroke-width:0.7;stroke-miterlimit:4;stroke-dasharray:none;stroke-linecap:square;fill:#cccccc;fill-opacity:1.0;fill-rule: evenodd"/>
<path id="Fillet_f0014"  d="M 57.5 89.0 A 2 2 0 0 0 55.5 87L 55.5 87.0 A 2 2 0 0 1 57.5 89L 57.5 89.0 Z " stroke="#191919" stroke-width="0.7 px" style="stroke-width:0.7;stroke-miterlimit:4;stroke-dasharray:none;stroke-linecap:square;fill:#cccccc;fill-opacity:1.0;fill-rule: evenodd"/>
<path id="Fillet_f0015"  d="M -22.5 87.0 L -55.5 87.0 L -55.5 87.0 L -22.5 87.0 L -22.5 87.0 Z " stroke="#191919" stroke-width="0.7 px" style="stroke-width:0.7;stroke-miterlimit:4;stroke-dasharray:none;stroke-linecap:square;fill:#cccccc;fill-opacity:1.0;fill-rule: evenodd"/>
<path id="Fillet_f0016"  d="M 22.5 87.0 L 55.5 87.0 L 55.5 87.0 L 22.5 87.0 L 22.5 87.0 Z " stroke="#191919" stroke-width="0.7 px" style="stroke-width:0.7;stroke-miterlimit:4;stroke-dasharray:none;stroke-linecap:square;fill:#cccccc;fill-opacity:1.0;fill-rule: evenodd"/>
<path id="Fillet_f0017"  d="M -22.5 57.0 L -22.5 87.0 L -22.5 87.0 L -22.5 57.0 L -22.5 57.0 Z " stroke="#191919" stroke-width="0.7 px" style="stroke-width:0.7;stroke-miterlimit:4;stroke-dasharray:none;stroke-linecap:square;fill:#cccccc;fill-opacity:1.0;fill-rule: evenodd"/>
<path id="Fillet_f0018"  d="M 22.5 87.0 L 22.5 87.0 L 22.5 57.0 L 22.5 57.0 L 22.5 87.0 Z " stroke="#191919" stroke-width="0.7 px" style="stroke-width:0.7;stroke-miterlimit:4;stroke-dasharray:none;stroke-linecap:square;fill:#cccccc;fill-opacity:1.0;fill-rule: evenodd"/>
<path id="Fillet_f0019"  d="M -27.0 57.0 L -22.5 57.0 L -22.5 57.0 L -27.0 57.0 L -27.0 57.0 Z " stroke="#191919" stroke-width="0.7 px" style="stroke-width:0.7;stroke-miterlimit:4;stroke-dasharray:none;stroke-linecap:square;fill:#cccccc;fill-opacity:1.0;fill-rule: evenodd"/>
<path id="Fillet_f0020"  d="M 27.0 57.0 L 22.5 57.0 L 22.5 57.0 L 27.0 57.0 L 27.0 57.0 Z " stroke="#191919" stroke-width="0.7 px" style="stroke-width:0.7;stroke-miterlimit:4;stroke-dasharray:none;stroke-linecap:square;fill:#cccccc;fill-opacity:1.0;fill-rule: evenodd"/>
<path id="Fillet_f0021"  d="M -27.0 57.0 A 2 2 0 0 1 -29 55L -29.0 55.0 A 2 2 0 0 0 -27 57L -27.0 57.0 Z " stroke="#191919" stroke-width="0.7 px" style="stroke-width:0.7;stroke-miterlimit:4;stroke-dasharray:none;stroke-linecap:square;fill:#cccccc;fill-opacity:1.0;fill-rule: evenodd"/>
<path id="Fillet_f0022"  d="M 27.0 57.0 A 2 2 0 0 0 29 55L 29.0 55.0 A 2 2 0 0 1 27 57L 27.0 57.0 Z " stroke="#191919" stroke-width="0.7 px" style="stroke-width:0.7;stroke-miterlimit:4;stroke-dasharray:none;stroke-linecap:square;fill:#cccccc;fill-opacity:1.0;fill-rule: evenodd"/>
<path id="Fillet_f0023"  d="M -29.0 29.0 L -29.0 55.0 L -29.0 55.0 L -29.0 29.0 L -29.0 29.0 Z " stroke="#191919" stroke-width="0.7 px" style="stroke-width:0.7;stroke-miterlimit:4;stroke-dasharray:none;stroke-linecap:square;fill:#cccccc;fill-opacity:1.0;fill-rule: evenodd"/>
<path id="Fillet_f0024"  d="M 29.0 29.0 L 29.0 55.0 L 29.0 55.0 L 29.0 29.0 L 29.0 29.0 Z " stroke="#191919" stroke-width="0.7 px" style="stroke-width:0.7;stroke-miterlimit:4;stroke-dasharray:none;stroke-linecap:square;fill:#cccccc;fill-opacity:1.0;fill-rule: evenodd"/>
<path id="Fillet_f0025"  d="M -29.0 29.0 A 2 2 0 0 1 -27 27L -27.0 27.0 A 2 2 0 0 0 -29 29L -29.0 29.0 Z " stroke="#191919" stroke-width="0.7 px" style="stroke-width:0.7;stroke-miterlimit:4;stroke-dasharray:none;stroke-linecap:square;fill:#cccccc;fill-opacity:1.0;fill-rule: evenodd"/>
<path id="Fillet_f0026"  d="M 29.0 29.0 A 2 2 0 0 0 27 27L 27.0 27.0 A 2 2 0 0 1 29 29L 29.0 29.0 Z " stroke="#191919" stroke-width="0.7 px" style="stroke-width:0.7;stroke-miterlimit:4;stroke-dasharray:none;stroke-linecap:square;fill:#cccccc;fill-opacity:1.0;fill-rule: evenodd"/>
<path id="Fillet_f0027"  d="M -22.5 27.0 L -27.0 27.0 L -27.0 27.0 L -22.5 27.0 L -22.5 27.0 Z " stroke="#191919" stroke-width="0.7 px" style="stroke-width:0.7;stroke-miterlimit:4;stroke-dasharray:none;stroke-linecap:square;fill:#cccccc;fill-opacity:1.0;fill-rule: evenodd"/>
<path id="Fillet_f0028"  d="M 22.5 27.0 L 27.0 27.0 L 27.0 27.0 L 22.5 27.0 L 22.5 27.0 Z " stroke="#191919" stroke-width="0.7 px" style="stroke-width:0.7;stroke-miterlimit:4;stroke-dasharray:none;stroke-linecap:square;fill:#cccccc;fill-opacity:1.0;fill-rule: evenodd"/>
<path id="Fillet_f0029"  d="M -22.5 1.9999999999999996 L -22.5 27.0 L -22.5 27.0 L -22.5 2.0 L -22.5 1.9999999999999996 Z " stroke="#191919" stroke-width="0.7 px" style="stroke-width:0.7;stroke-miterlimit:4;stroke-dasharray:none;stroke-linecap:square;fill:#cccccc;fill-opacity:1.0;fill-rule: evenodd"/>
<path id="Fillet_f0030"  d="M 22.5 1.9999999999999996 L 22.5 27.0 L 22.5 27.0 L 22.5 2.0 L 22.5 1.9999999999999996 Z " stroke="#191919" stroke-width="0.7 px" style="stroke-width:0.7;stroke-miterlimit:4;stroke-dasharray:none;stroke-linecap:square;fill:#cccccc;fill-opacity:1.0;fill-rule: evenodd"/>
<path id="Fillet_f0031"  d="M -22.5 1.9999999999999996 A 2 2 0 0 1 -20.5 -4.44089e-16L -20.5 -4.440892098500626e-16 A 2 2 0 0 0 -22.5 2L -22.5 1.9999999999999996 Z " stroke="#191919" stroke-width="0.7 px" style="stroke-width:0.7;stroke-miterlimit:4;stroke-dasharray:none;stroke-linecap:square;fill:#cccccc;fill-opacity:1.0;fill-rule: evenodd"/>
<path id="Fillet_f0032"  d="M 22.5 1.9999999999999996 A 2 2 0 0 0 20.5 -4.44089e-16L 20.5 -4.440892098500626e-16 A 2 2 0 0 1 22.5 2L 22.5 1.9999999999999996 Z " stroke="#191919" stroke-width="0.7 px" style="stroke-width:0.7;stroke-miterlimit:4;stroke-dasharray:none;stroke-linecap:square;fill:#cccccc;fill-opacity:1.0;fill-rule: evenodd"/>
<path id="Fillet_f0033"  d="M 20.5 -4.440892098500626e-16 L -20.5 -4.440892098500626e-16 L -20.5 -4.440892098500626e-16 L 20.5 -4.440892098500626e-16 L 20.5 -4.440892098500626e-16 Z " stroke="#191919" stroke-width="0.7 px" style="stroke-width:0.7;stroke-miterlimit:4;stroke-dasharray:none;stroke-linecap:square;fill:#cccccc;fill-opacity:1.0;fill-rule: evenodd"/>
<circle cx="18.0" cy="10.0" r="2.0" stroke="#191919" stroke-width="0.7 px" style="stroke-width:0.7;stroke-miterlimit:4;stroke-dasharray:none;stroke-linecap:square;fill:#cccccc"/>
<circle cx="24.5" cy="192.0" r="2.0" stroke="#191919" stroke-width="0.7 px" style="stroke-width:0.7;stroke-miterlimit:4;stroke-dasharray:none;stroke-linecap:square;fill:#cccccc"/>
<circle cx="24.5" cy="212.3" r="2.0" stroke="#191919" stroke-width="0.7 px" style="stroke-width:0.7;stroke-miterlimit:4;stroke-dasharray:none;stroke-linecap:square;fill:#cccccc"/>
<circle cx="24.500000000000004" cy="31.85" r="2.0" stroke="#191919" stroke-width="0.7 px" style="stroke-width:0.7;stroke-miterlimit:4;stroke-dasharray:none;stroke-linecap:square;fill:#cccccc"/>
<circle cx="24.500000000000004" cy="52.15" r="2.0" stroke="#191919" stroke-width="0.7 px" style="stroke-width:0.7;stroke-miterlimit:4;stroke-dasharray:none;stroke-linecap:square;fill:#cccccc"/>
<circle cx="-18.0" cy="10.0" r="2.0" stroke="#191919" stroke-width="0.7 px" style="stroke-width:0.7;stroke-miterlimit:4;stroke-dasharray:none;stroke-linecap:square;fill:#cccccc"/>
<circle cx="-24.5" cy="192.0" r="2.0" stroke="#191919" stroke-width="0.7 px" style="stroke-width:0.7;stroke-miterlimit:4;stroke-dasharray:none;stroke-linecap:square;fill:#cccccc"/>
<circle cx="-24.5" cy="212.3" r="2.0" stroke="#191919" stroke-width="0.7 px" style="stroke-width:0.7;stroke-miterlimit:4;stroke-dasharray:none;stroke-linecap:square;fill:#cccccc"/>
<circle cx="-24.500000000000004" cy="31.85" r="2.0" stroke="#191919" stroke-width="0.7 px" style="stroke-width:0.7;stroke-miterlimit:4;stroke-dasharray:none;stroke-linecap:square;fill:#cccccc"/>
<circle cx="-24.500000000000004" cy="52.15" r="2.0" stroke="#191919" stroke-width="0.7 px" style="stroke-width:0.7;stroke-miterlimit:4;stroke-dasharray:none;stroke-linecap:square;fill:#cccccc"/>
<title>b'Fillet'</title>
</g>
</svg>